<?xml version="1.0" encoding="UTF-8" standalone="no"?>
<!DOCTYPE svg PUBLIC "-//W3C//DTD SVG 1.1//EN" "http://www.w3.org/Graphics/SVG/1.1/DTD/svg11.dtd">
<svg width="100%" height="100%" viewBox="0 0 31 31" version="1.1" xmlns="http://www.w3.org/2000/svg" xmlns:xlink="http://www.w3.org/1999/xlink" xml:space="preserve" xmlns:serif="http://www.serif.com/" style="fill-rule:evenodd;clip-rule:evenodd;stroke-linejoin:round;stroke-miterlimit:2;">
    <g transform="matrix(0.0247802,0,0,0.0247802,0,0)">
        <rect x="0" y="0" width="1251" height="1250" style="fill:rgb(73,193,168);"/>
    </g>
    <g transform="matrix(0.0247802,0,0,0.0247802,0,0)">
        <path d="M851,850.333L1059.5,850.333L1059.5,191.333L608.5,191.333L608.5,433.667L817,433.667L817,608L608.5,608L608.5,1058.67L851,1058.67L851,850.333ZM434,1058.67L434,608L191.5,608L191.5,1058.67L434,1058.67ZM225.5,850.333L400,850.333L400,1024.67C400,1024.67 225.5,1024.67 225.5,1024.67L225.5,850.333ZM642.5,850.333L817,850.333L817,1024.67C817,1024.67 642.5,1024.67 642.5,1024.67L642.5,850.333ZM1025.5,642L851,642L851,816.333L1025.5,816.333L1025.5,642ZM642.5,816.333L642.5,642C642.5,642 817,642 817,642L817,642L817,816.333L642.5,816.333ZM225.5,816.333L225.5,642C225.5,642 400,642 400,642L400,642L400,816.333L225.5,816.333ZM1025.5,433.667L851,433.667L851,608L1025.5,608L1025.5,433.667ZM434,433.667L434,191.333L191.5,191.333L191.5,433.667L434,433.667ZM817,225.333L817,399.667C817,399.667 642.5,399.667 642.5,399.667C642.5,360.537 642.5,264.463 642.5,225.333L817,225.333ZM400,225.333L400,399.667C400,399.667 225.5,399.667 225.5,399.667C225.5,399.667 225.5,225.333 225.5,225.333C225.5,225.333 400,225.333 400,225.333L400,225.333ZM851,225.333L851,399.667L1025.5,399.667L1025.5,225.333L851,225.333Z" style="fill:rgb(255,250,250);"/>
    </g>
</svg>
