<?xml version="1.0" encoding="UTF-8" standalone="no"?><!DOCTYPE svg PUBLIC "-//W3C//DTD SVG 1.1//EN" "http://www.w3.org/Graphics/SVG/1.1/DTD/svg11.dtd"><svg width="100%" height="100%" viewBox="0 0 542 130" version="1.1" xmlns="http://www.w3.org/2000/svg" xmlns:xlink="http://www.w3.org/1999/xlink" xml:space="preserve" xmlns:serif="http://www.serif.com/" style="fill-rule:evenodd;clip-rule:evenodd;stroke-linejoin:round;stroke-miterlimit:2;"><g id="New-Group"><rect x="0" y="0" width="129.167" height="129.064" style="fill:#49c1a8;"/><path d="M87.866,87.798l21.528,-0l0,-68.043l-46.566,0l0,25.021l21.528,0l-0,18.001l-21.528,-0l0,46.532l25.038,-0l0,-21.511Zm-43.055,21.511l-0,-46.532l-25.038,-0l-0,46.532l25.038,-0Zm-21.528,-21.511l18.017,-0l0,18l-18.017,0l0,-18Zm43.056,-0l18.017,-0l-0,18l-18.017,0l-0,-18Zm39.545,-21.511l-18.018,0l0,18l18.018,0l-0,-18Zm-39.545,18l-0,-18l18.017,0l-0,18l-18.017,0Zm-43.056,0l0,-18l18.017,0l0,18l-18.017,0Zm82.601,-39.511l-18.018,0l0,18.001l18.018,-0l-0,-18.001Zm-61.073,0l-0,-25.021l-25.038,0l-0,25.021l25.038,0Zm39.545,-21.51l-0,18l-18.017,-0l-0,-18l18.017,-0Zm-43.056,-0l0,18l-18.017,-0l0,-18l18.017,-0Zm46.566,-0l0,18l18.018,-0l-0,-18l-18.018,-0Z" style="fill:#fffafa;"/></g></svg>