<?xml version="1.0" encoding="UTF-8"?>
<svg width="130px" height="31px" viewBox="0 0 130 31" xmlns="http://www.w3.org/2000/svg" xmlns:xlink="http://www.w3.org/1999/xlink" version="1.1">
 <!-- Generated by Pixelmator Pro 2.0.4 -->
 <g id="New-Group">
  <path id="Path" d="M0.106 31 L0.106 19.399 0.106 19.383 0.106 0 19.505 0 19.505 19.399 11.723 19.399 11.723 31 Z" fill="#000000" fill-opacity="1" stroke="none"/>
  <path id="Path-1" d="M19.634 30.984 L50.618 30.984 50.618 0 19.634 0 Z" fill="#1ee5ce" fill-opacity="1" stroke="none"/>
  <path id="Path-2" d="M11.771 23.266 L15.654 23.266 15.654 19.383 11.771 19.383 Z" fill="#1ee5ce" fill-opacity="1" stroke="none"/>
  <path id="Path-3" d="M15.759 30.957 L19.642 30.957 19.642 27.074 15.759 27.074 Z" fill="#1ee5ce" fill-opacity="1" stroke="none"/>
 </g>
 <path id="PATTERN-TECH" d="M109.4 31.348 C106.565 31.348 104.164 29.398 104.164 25.618 104.164 21.898 106.655 19.768 109.49 19.768 110.945 19.768 112.116 20.443 112.881 21.223 L111.471 22.934 C110.916 22.424 110.33 22.063 109.535 22.063 108.095 22.063 106.91 23.353 106.91 25.528 106.91 27.748 107.931 29.038 109.506 29.038 110.391 29.038 111.11 28.588 111.635 28.018 L113.045 29.698 C112.1 30.793 110.855 31.348 109.4 31.348 Z M87.785 31.137 L87.785 22.198 84.77 22.198 84.77 19.979 93.5 19.979 93.5 22.198 90.471 22.198 90.471 31.137 87.785 31.137 Z M95.225 31.137 L95.225 19.979 102.305 19.979 102.305 22.198 97.91 22.198 97.91 24.268 101.645 24.268 101.645 26.518 97.91 26.518 97.91 28.887 102.471 28.887 102.471 31.137 95.225 31.137 Z M114.68 31.137 L114.68 19.979 117.365 19.979 117.365 24.223 121.039 24.223 121.039 19.979 123.695 19.979 123.695 31.137 121.039 31.137 121.039 26.547 117.365 26.547 117.365 31.137 114.68 31.137 Z M57.5 11.501 L57.5 0.34 61.414 0.34 C63.874 0.34 65.9 1.209 65.9 3.969 65.9 6.624 63.845 7.795 61.49 7.795 L60.186 7.795 60.186 11.501 57.5 11.501 Z M65.539 11.501 L69.006 0.34 72.215 0.34 75.68 11.501 72.859 11.501 72.215 8.934 68.914 8.934 68.27 11.501 65.539 11.501 Z M77.721 11.501 L77.721 2.559 74.705 2.559 74.705 0.34 83.436 0.34 83.436 2.559 80.404 2.559 80.404 11.501 77.721 11.501 Z M87.32 11.501 L87.32 2.559 84.305 2.559 84.305 0.34 93.035 0.34 93.035 2.559 90.006 2.559 90.006 11.501 87.32 11.501 Z M94.76 11.501 L94.76 0.34 101.84 0.34 101.84 2.559 97.445 2.559 97.445 4.629 101.18 4.629 101.18 6.879 97.445 6.879 97.445 9.251 102.006 9.251 102.006 11.501 94.76 11.501 Z M104.211 11.501 L104.211 0.34 108.305 0.34 C110.69 0.34 112.67 1.15 112.67 3.85 112.67 5.485 111.905 6.535 110.75 7.075 L113.24 11.501 110.24 11.501 108.186 7.571 106.895 7.571 106.895 11.501 104.211 11.501 Z M114.83 11.501 L114.83 0.34 117.561 0.34 120.336 5.68 121.43 8.155 121.506 8.155 C121.356 6.97 121.145 5.365 121.145 4.03 L121.145 0.34 123.695 0.34 123.695 11.501 120.965 11.501 118.205 6.116 117.109 3.67 117.035 3.67 C117.155 4.915 117.381 6.445 117.381 7.795 L117.381 11.501 114.83 11.501 Z M69.426 6.866 L71.705 6.866 71.465 5.92 C71.165 4.81 70.88 3.474 70.58 2.334 L70.52 2.334 C70.25 3.504 69.949 4.81 69.664 5.92 L69.426 6.866 Z M60.186 5.68 L61.355 5.68 C62.66 5.68 63.289 5.064 63.289 3.969 63.289 2.844 62.569 2.456 61.279 2.456 L60.186 2.456 60.186 5.68 Z M106.895 5.456 L108.096 5.456 C109.371 5.456 110.045 4.9 110.045 3.85 110.045 2.8 109.371 2.456 108.096 2.456 L106.895 2.456 106.895 5.456 Z" fill="#000000" fill-opacity="1" stroke="none"/>
</svg>
